<?xml version="1.0" encoding="utf-8" ?>
<svg xmlns="http://www.w3.org/2000/svg" xmlns:xlink="http://www.w3.org/1999/xlink" width="32" height="16">
	<defs>
		<clipPath id="clip_0">
			<rect x="-695" y="-504" width="1366" height="2624" clip-rule="evenodd"/>
		</clipPath>
	</defs>
	<g clip-path="url(#clip_0)">
		<path fill="rgb(0,0,0)" stroke="none" d="M3 0L29 0Q29.1538 0 29.3051 0.0139819Q29.4565 0.0279637 29.6043 0.0558134Q29.7521 0.0836631 29.8951 0.125154Q30.038 0.166644 30.175 0.221437Q30.312 0.276229 30.4419 0.343877Q30.5717 0.411525 30.6935 0.491477Q30.8152 0.571429 30.9278 0.663032Q31.0404 0.754635 31.1429 0.857143Q31.2454 0.959651 31.337 1.07223Q31.4286 1.1848 31.5085 1.30653Q31.5885 1.42826 31.6561 1.55814Q31.7238 1.68802 31.7786 1.825Q31.8334 1.96199 31.8748 2.10495Q31.9163 2.24791 31.9442 2.39569Q31.972 2.54347 31.986 2.69485Q32 2.84624 32 3L32 13Q32 13.1538 31.986 13.3052Q31.972 13.4565 31.9442 13.6043Q31.9163 13.7521 31.8748 13.8951Q31.8334 14.038 31.7786 14.175Q31.7238 14.312 31.6561 14.4419Q31.5885 14.5717 31.5085 14.6935Q31.4286 14.8152 31.337 14.9278Q31.2454 15.0403 31.1429 15.1429Q31.0404 15.2454 30.9278 15.337Q30.8152 15.4286 30.6935 15.5085Q30.5717 15.5885 30.4419 15.6561Q30.312 15.7238 30.175 15.7786Q30.038 15.8334 29.8951 15.8748Q29.7521 15.9163 29.6043 15.9442Q29.4565 15.972 29.3051 15.986Q29.1538 16 29 16L3 16Q2.84624 16 2.69485 15.986Q2.54347 15.972 2.39569 15.9442Q2.24791 15.9163 2.10495 15.8748Q1.96199 15.8334 1.825 15.7786Q1.68802 15.7238 1.55814 15.6561Q1.42826 15.5885 1.30653 15.5085Q1.1848 15.4286 1.07223 15.337Q0.959651 15.2454 0.857143 15.1429Q0.754635 15.0403 0.663032 14.9278Q0.571429 14.8152 0.491477 14.6935Q0.411525 14.5717 0.343877 14.4419Q0.276229 14.312 0.221437 14.175Q0.166644 14.038 0.125154 13.8951Q0.0836631 13.7521 0.0558134 13.6043Q0.0279637 13.4565 0.0139819 13.3052Q0 13.1538 0 13L0 3Q0 2.84624 0.0139819 2.69485Q0.0279637 2.54347 0.0558134 2.39569Q0.0836631 2.24791 0.125154 2.10495Q0.166644 1.96199 0.221437 1.825Q0.276229 1.68802 0.343877 1.55814Q0.411525 1.42826 0.491477 1.30653Q0.571429 1.1848 0.663032 1.07223Q0.754635 0.959651 0.857143 0.857143Q0.959651 0.754635 1.07223 0.663032Q1.1848 0.571429 1.30653 0.491477Q1.42826 0.411525 1.55814 0.343877Q1.68802 0.276229 1.825 0.221437Q1.96199 0.166644 2.10495 0.125154Q2.24791 0.0836631 2.39569 0.0558134Q2.54347 0.0279637 2.69485 0.0139819Q2.84624 0 3 0Z"/>
	</g>
	<defs>
		<clipPath id="clip_1">
			<path d="M29 0L3 0Q2.84624 0 2.69485 0.0139819Q2.54347 0.0279637 2.39569 0.0558134Q2.24791 0.0836631 2.10495 0.125154Q1.96199 0.166644 1.825 0.221437Q1.68802 0.276229 1.55814 0.343877Q1.42826 0.411525 1.30653 0.491477Q1.1848 0.571429 1.07223 0.663032Q0.959651 0.754635 0.857143 0.857143Q0.754635 0.959651 0.663032 1.07223Q0.571429 1.1848 0.491477 1.30653Q0.411525 1.42826 0.343877 1.55814Q0.276229 1.68802 0.221437 1.825Q0.166644 1.96199 0.125154 2.10495Q0.0836631 2.24791 0.0558134 2.39569Q0.0279637 2.54347 0.0139819 2.69485Q0 2.84624 0 3L0 13Q0 13.1538 0.0139819 13.3052Q0.0279637 13.4565 0.0558134 13.6043Q0.0836631 13.7521 0.125154 13.8951Q0.166644 14.038 0.221437 14.175Q0.276229 14.312 0.343877 14.4419Q0.411525 14.5717 0.491477 14.6935Q0.571429 14.8152 0.663032 14.9278Q0.754635 15.0403 0.857143 15.1429Q0.959651 15.2454 1.07223 15.337Q1.1848 15.4286 1.30653 15.5085Q1.42826 15.5885 1.55814 15.6561Q1.68802 15.7238 1.825 15.7786Q1.96199 15.8334 2.10495 15.8748Q2.24791 15.9163 2.39569 15.9442Q2.54347 15.972 2.69485 15.986Q2.84624 16 3 16L29 16Q29.1538 16 29.3051 15.986Q29.4565 15.972 29.6043 15.9442Q29.7521 15.9163 29.8951 15.8748Q30.038 15.8334 30.175 15.7786Q30.312 15.7238 30.4419 15.6561Q30.5717 15.5885 30.6935 15.5085Q30.8152 15.4286 30.9278 15.337Q31.0404 15.2454 31.1429 15.1429Q31.2454 15.0403 31.337 14.9278Q31.4286 14.8152 31.5085 14.6935Q31.5885 14.5717 31.6561 14.4419Q31.7238 14.312 31.7786 14.175Q31.8334 14.038 31.8748 13.8951Q31.9163 13.7521 31.9442 13.6043Q31.972 13.4565 31.986 13.3052Q32 13.1538 32 13L32 3Q32 2.84624 31.986 2.69485Q31.972 2.54347 31.9442 2.39569Q31.9163 2.24791 31.8748 2.10495Q31.8334 1.96199 31.7786 1.825Q31.7238 1.68802 31.6561 1.55814Q31.5885 1.42826 31.5085 1.30653Q31.4286 1.1848 31.337 1.07223Q31.2454 0.959651 31.1429 0.857143Q31.0404 0.754635 30.9278 0.663032Q30.8152 0.571429 30.6935 0.491477Q30.5717 0.411525 30.4419 0.343877Q30.312 0.276229 30.175 0.221437Q30.038 0.166644 29.8951 0.125154Q29.7521 0.0836631 29.6043 0.0558134Q29.4565 0.0279637 29.3051 0.0139819Q29.1538 0 29 0Z" clip-rule="evenodd"/>
		</clipPath>
	</defs>
	<g clip-path="url(#clip_1)">
		<path fill="none" stroke="rgb(255,255,255)" stroke-width="2" stroke-miterlimit="4" d="M3 0L29 0Q29.1538 0 29.3051 0.0139819Q29.4565 0.0279637 29.6043 0.0558134Q29.7521 0.0836631 29.8951 0.125154Q30.038 0.166644 30.175 0.221437Q30.312 0.276229 30.4419 0.343877Q30.5717 0.411525 30.6935 0.491477Q30.8152 0.571429 30.9278 0.663032Q31.0404 0.754635 31.1429 0.857143Q31.2454 0.959651 31.337 1.07223Q31.4286 1.1848 31.5085 1.30653Q31.5885 1.42826 31.6561 1.55814Q31.7238 1.68802 31.7786 1.825Q31.8334 1.96199 31.8748 2.10495Q31.9163 2.24791 31.9442 2.39569Q31.972 2.54347 31.986 2.69485Q32 2.84624 32 3L32 13Q32 13.1538 31.986 13.3052Q31.972 13.4565 31.9442 13.6043Q31.9163 13.7521 31.8748 13.8951Q31.8334 14.038 31.7786 14.175Q31.7238 14.312 31.6561 14.4419Q31.5885 14.5717 31.5085 14.6935Q31.4286 14.8152 31.337 14.9278Q31.2454 15.0403 31.1429 15.1429Q31.0404 15.2454 30.9278 15.337Q30.8152 15.4286 30.6935 15.5085Q30.5717 15.5885 30.4419 15.6561Q30.312 15.7238 30.175 15.7786Q30.038 15.8334 29.8951 15.8748Q29.7521 15.9163 29.6043 15.9442Q29.4565 15.972 29.3051 15.986Q29.1538 16 29 16L3 16Q2.84624 16 2.69485 15.986Q2.54347 15.972 2.39569 15.9442Q2.24791 15.9163 2.10495 15.8748Q1.96199 15.8334 1.825 15.7786Q1.68802 15.7238 1.55814 15.6561Q1.42826 15.5885 1.30653 15.5085Q1.1848 15.4286 1.07223 15.337Q0.959651 15.2454 0.857143 15.1429Q0.754635 15.0403 0.663032 14.9278Q0.571429 14.8152 0.491477 14.6935Q0.411525 14.5717 0.343877 14.4419Q0.276229 14.312 0.221437 14.175Q0.166644 14.038 0.125154 13.8951Q0.0836631 13.7521 0.0558134 13.6043Q0.0279637 13.4565 0.0139819 13.3052Q0 13.1538 0 13L0 3Q0 2.84624 0.0139819 2.69485Q0.0279637 2.54347 0.0558134 2.39569Q0.0836631 2.24791 0.125154 2.10495Q0.166644 1.96199 0.221437 1.825Q0.276229 1.68802 0.343877 1.55814Q0.411525 1.42826 0.491477 1.30653Q0.571429 1.1848 0.663032 1.07223Q0.754635 0.959651 0.857143 0.857143Q0.959651 0.754635 1.07223 0.663032Q1.1848 0.571429 1.30653 0.491477Q1.42826 0.411525 1.55814 0.343877Q1.68802 0.276229 1.825 0.221437Q1.96199 0.166644 2.10495 0.125154Q2.24791 0.0836631 2.39569 0.0558134Q2.54347 0.0279637 2.69485 0.0139819Q2.84624 0 3 0Z"/>
	</g>
	<defs>
		<clipPath id="clip_2">
			<rect x="-695" y="-504" width="1366" height="2624" clip-rule="evenodd"/>
		</clipPath>
	</defs>
	<g clip-path="url(#clip_2)">
		<path fill="rgb(255,248,248)" stroke="none" transform="translate(3 3)" d="M1 0L25 0Q25.1027 0 25.2014 0.0186045Q25.3002 0.037209 25.3917 0.0738122Q25.4832 0.110415 25.5645 0.163826Q25.6458 0.217236 25.7143 0.285714Q25.7828 0.354193 25.8362 0.43551Q25.8896 0.516827 25.9262 0.608335Q25.9628 0.699843 25.9814 0.798563Q26 0.897283 26 1L26 9Q26 9.10272 25.9814 9.20144Q25.9628 9.30016 25.9262 9.39167Q25.8896 9.48317 25.8362 9.56449Q25.7828 9.64581 25.7143 9.71429Q25.6458 9.78276 25.5645 9.83617Q25.4832 9.88959 25.3917 9.92619Q25.3002 9.96279 25.2014 9.9814Q25.1027 10 25 10L1 10Q0.897283 10 0.798563 9.9814Q0.699843 9.96279 0.608335 9.92619Q0.516827 9.88959 0.43551 9.83617Q0.354193 9.78276 0.285714 9.71429Q0.217236 9.64581 0.163826 9.56449Q0.110415 9.48317 0.0738122 9.39167Q0.037209 9.30016 0.0186045 9.20144Q0 9.10272 0 9L0 1Q0 0.897283 0.0186045 0.798563Q0.037209 0.699843 0.0738122 0.608335Q0.110415 0.516827 0.163826 0.43551Q0.217236 0.354193 0.285714 0.285714Q0.354193 0.217236 0.43551 0.163826Q0.516827 0.110415 0.608335 0.0738122Q0.699843 0.037209 0.798563 0.0186045Q0.897283 0 1 0Z"/>
	</g>
</svg>
